<svg xmlns="http://www.w3.org/2000/svg" viewBox="0 0 320 64" role="img" aria-label="Where to Park · Reykjavík">
  <rect width="64" height="64" rx="12" fill="#14161a"/>
  <path transform="translate(7 -2) scale(2)" fill="#ffffff" fill-rule="evenodd"
        d="M13 3H6v18h4v-6h3c3.31 0 6-2.69 6-6s-2.69-6-6-6zm.2 8H10V7h3.2c1.1 0 2 .9 2 2s-.9 2-2 2z"/>
  <rect x="8"  y="50" width="11" height="6" rx="1.5" fill="#d72638"/>
  <rect x="20" y="50" width="11" height="6" rx="1.5" fill="#1f6feb"/>
  <rect x="32" y="50" width="11" height="6" rx="1.5" fill="#2ea043"/>
  <rect x="44" y="50" width="12" height="6" rx="1.5" fill="#ff8c1a"/>
  <text x="80" y="32" dominant-baseline="central"
        font-family="system-ui, -apple-system, Segoe UI, Roboto, Helvetica, Arial, sans-serif"
        font-size="22" font-weight="700" fill="#14161a" letter-spacing="-0.5">Where to Park</text>
  <text x="80" y="50" dominant-baseline="central"
        font-family="system-ui, -apple-system, Segoe UI, Roboto, Helvetica, Arial, sans-serif"
        font-size="11" font-weight="500" fill="#5a5a60" letter-spacing="0.5">REYKJAVÍK</text>
</svg>
